<svg version="1.2" xmlns="http://www.w3.org/2000/svg" viewBox="0 0 1606 94" width="1606" height="94">
	<title>title-svg</title>
	<style>
		.s0 { fill: #000000 } 
	</style>
	<g id="svgGroup">
		<path id="Terminal" class="s0" aria-label="Terminal"  d="m28.8 30.6h-11.9q-1.6 0-2.8-1.2-1.1-1.2-1.1-2.8 0-1.6 1.1-2.7 1.2-1.2 2.8-1.2h31.6q1.6 0 2.8 1.2 1.2 1.1 1.2 2.7 0 1.6-1.2 2.8-1.2 1.2-2.8 1.2h-11.8v43.4q0 1.6-1.2 2.8-1.2 1.2-2.8 1.2-1.6 0-2.8-1.2-1.1-1.2-1.1-2.8zm59.2 47.5h-15.8q-4.7 0-8.3-3.6-3.5-3.5-3.5-8.3v-15.8q0-4.7 3.5-8.3 3.6-3.5 8.3-3.5h15.8q4.8 0 8.3 3.5 3.6 3.6 3.6 8.3v7.9q0 1.6-1.2 2.8-1.2 1.2-2.7 1.2h-27.7v3.9q0 1.6 1.2 2.8 1.2 1.2 2.7 1.2h15.8q1.6 0 2.8 1.2 1.2 1.1 1.2 2.7 0 1.6-1.2 2.8-1.2 1.2-2.8 1.2zm-19.7-27.7v4h23.7v-4q0-1.6-1.2-2.8-1.2-1.1-2.8-1.1h-15.8q-1.5 0-2.7 1.1-1.2 1.2-1.2 2.8zm67.2-3.9h-11.9v27.6q0 1.6-1.2 2.8-1.2 1.2-2.7 1.2-1.6 0-2.8-1.2-1.2-1.2-1.2-2.8v-31.6q0-1.6 1.2-2.8 1.2-1.1 2.8-1.1h15.8q4.7 0 8.3 3.5 3.5 3.6 3.5 8.3 0 1.6-1.2 2.8-1.1 1.2-2.7 1.2-1.6 0-2.8-1.2-1.2-1.2-1.2-2.8 0-1.6-1.2-2.8-1.1-1.1-2.7-1.1zm31.6 0h-4v27.6q0 1.6-1.1 2.8-1.2 1.2-2.8 1.2-1.6 0-2.8-1.2-1.2-1.2-1.2-2.8v-31.6q0-1.6 1.2-2.8 1.2-1.1 2.8-1.1h7.9q4.7 0 8.3 3.5 2.8-3.5 7.5-3.5 4.7 0 8.3 3.5 3.6 3.6 3.6 8.3v23.7q0 1.6-1.2 2.8-1.2 1.2-2.8 1.2-1.6 0-2.8-1.2-1.1-1.2-1.1-2.8v-23.7q0-1.6-1.2-2.8-1.2-1.1-2.8-1.1-1.6 0-2.8 1.1-1.1 1.2-1.1 2.8v23.7q0 1.6-1.2 2.8-1.2 1.2-2.8 1.2-1.6 0-2.8-1.2-1.2-1.2-1.2-2.8v-23.7q0-1.6-1.1-2.8-1.2-1.1-2.8-1.1zm51.4 23.7v-23.7h-4q-1.6 0-2.7-1.2-1.2-1.2-1.2-2.8 0-1.6 1.2-2.8 1.1-1.1 2.7-1.1h7.9q1.6 0 2.8 1.1 1.2 1.2 1.2 2.8v27.7h3.9q1.6 0 2.8 1.2 1.2 1.1 1.2 2.7 0 1.6-1.2 2.8-1.2 1.2-2.8 1.2h-15.8q-1.6 0-2.7-1.2-1.2-1.2-1.2-2.8 0-1.6 1.2-2.7 1.1-1.2 2.7-1.2zm4-39.6q-1.6 0-2.8-1.1-1.2-1.2-1.2-2.8 0-1.6 1.2-2.8 1.2-1.2 2.8-1.2 1.6 0 2.7 1.2 1.2 1.2 1.2 2.8 0 1.6-1.2 2.8-1.1 1.1-2.7 1.1zm55.3 15.9h-19.8v27.6q0 1.6-1.1 2.8-1.2 1.2-2.8 1.2-1.6 0-2.8-1.2-1.2-1.2-1.2-2.8v-31.6q0-1.6 1.2-2.8 1.2-1.1 2.8-1.1h23.7q4.8 0 8.3 3.5 3.6 3.6 3.6 8.3v23.7q0 1.6-1.2 2.8-1.2 1.2-2.8 1.2-1.6 0-2.8-1.2-1.1-1.2-1.1-2.8v-23.7q0-1.6-1.2-2.8-1.2-1.1-2.8-1.1zm55.3 31.6h-23.7q-4.7 0-8.3-3.6-3.5-3.5-3.5-8.3 0-4.7 3.5-8.3 3.6-3.5 8.3-3.5h19.8v-4q0-1.6-1.2-2.8-1.2-1.1-2.8-1.1h-15.8q-1.6 0-2.7-1.2-1.2-1.2-1.2-2.8 0-1.6 1.2-2.8 1.1-1.1 2.7-1.1h15.8q4.8 0 8.3 3.5 3.6 3.6 3.6 8.3v23.7q0 1.6-1.2 2.8-1.2 1.2-2.8 1.2zm-3.9-7.9v-7.9h-19.8q-1.6 0-2.7 1.2-1.2 1.1-1.2 2.7 0 1.6 1.2 2.8 1.1 1.2 2.7 1.2zm43.5 7.9h-15.8q-1.6 0-2.8-1.2-1.2-1.2-1.2-2.8 0-1.6 1.2-2.7 1.2-1.2 2.8-1.2h3.9v-39.6h-3.9q-1.6 0-2.8-1.1-1.2-1.2-1.2-2.8 0-1.6 1.2-2.8 1.2-1.2 2.8-1.2h7.9q1.6 0 2.8 1.2 1.2 1.2 1.2 2.8v43.5h3.9q1.6 0 2.8 1.2 1.2 1.1 1.2 2.7 0 1.6-1.2 2.8-1.2 1.2-2.8 1.2z"/>
	</g>
</svg>