<svg version="1.2" xmlns="http://www.w3.org/2000/svg" viewBox="0 0 1606 94" width="1606" height="94">
	<title>title-svg</title>
	<style>
		.s0 { fill: #000000 } 
	</style>
	<g id="svgGroup">
		<path id="Terminal" class="s0" aria-label="Terminal"  d="m35.7 19.9h-16.6q-2.2 0-3.9-1.7-1.7-1.7-1.7-4 0-2.2 1.7-3.9 1.7-1.7 3.9-1.7h44.3q2.2 0 3.9 1.7 1.7 1.7 1.7 3.9 0 2.3-1.7 4-1.7 1.7-3.9 1.7h-16.6v62.4q0 2.3-1.7 4-1.6 1.7-3.9 1.7-2.2 0-3.8-1.7-1.7-1.7-1.7-4zm83.1 68.1h-22.1q-6.7 0-11.7-5.1-5-5.1-5-11.9v-22.7q0-6.8 5-11.9 5-5.1 11.7-5.1h22.1q6.7 0 11.7 5.1 5 5.1 5 11.9v11.3q0 2.3-1.7 4-1.7 1.7-3.9 1.7h-38.8v5.7q0 2.3 1.7 4 1.6 1.7 3.9 1.7h22.1q2.2 0 3.9 1.7 1.7 1.7 1.7 3.9 0 2.3-1.7 4-1.7 1.7-3.9 1.7zm-27.7-39.7v5.7h33.3v-5.7q0-2.3-1.7-4-1.7-1.7-3.9-1.7h-22.1q-2.3 0-3.9 1.7-1.7 1.7-1.7 4zm94.2-5.7h-16.6v39.7q0 2.3-1.7 4-1.6 1.7-3.8 1.7-2.3 0-3.9-1.7-1.7-1.7-1.7-4v-45.4q0-2.2 1.7-3.9 1.6-1.7 3.9-1.7h22.1q6.7 0 11.7 5.1 5 5.1 5 11.9 0 2.3-1.7 4-1.7 1.7-3.9 1.7-2.2 0-3.9-1.7-1.6-1.7-1.6-4 0-2.3-1.7-4-1.7-1.7-3.9-1.7zm44.4 0h-5.6v39.7q0 2.3-1.6 4-1.7 1.7-3.9 1.7-2.2 0-3.9-1.7-1.7-1.7-1.7-4v-45.4q0-2.2 1.7-3.9 1.7-1.7 3.9-1.7h11.1q6.6 0 11.6 5.1 3.9-5.1 10.5-5.1 6.7 0 11.7 5.1 5 5.1 5 11.9v34q0 2.3-1.7 4-1.7 1.7-3.9 1.7-2.2 0-3.9-1.7-1.6-1.7-1.6-4v-34q0-2.3-1.7-4-1.7-1.7-3.9-1.7-2.2 0-3.8 1.7-1.7 1.7-1.7 4v34q0 2.3-1.7 4-1.6 1.7-3.9 1.7-2.2 0-3.8-1.7-1.7-1.7-1.7-4v-34q0-2.3-1.7-4-1.6-1.7-3.8-1.7zm72 34.1v-34.1h-5.5q-2.3 0-3.9-1.7-1.7-1.7-1.7-4 0-2.2 1.7-3.9 1.6-1.7 3.9-1.7h11q2.3 0 3.9 1.7 1.7 1.7 1.7 3.9v39.8h5.5q2.2 0 3.9 1.7 1.7 1.7 1.7 3.9 0 2.3-1.7 4-1.7 1.7-3.9 1.7h-22.1q-2.3 0-3.9-1.7-1.7-1.7-1.7-4 0-2.2 1.7-3.9 1.6-1.7 3.9-1.7zm5.5-56.8q-2.2 0-3.9-1.7-1.6-1.7-1.6-3.9 0-2.3 1.6-4 1.7-1.7 3.9-1.7 2.2 0 3.9 1.7 1.6 1.7 1.6 4 0 2.2-1.6 3.9-1.7 1.7-3.9 1.7zm77.6 22.7h-27.7v39.7q0 2.3-1.7 4-1.6 1.7-3.9 1.7-2.2 0-3.8-1.7-1.7-1.7-1.7-4v-45.4q0-2.2 1.7-3.9 1.6-1.7 3.8-1.7h33.3q6.6 0 11.6 5.1 5 5.1 5 11.9v34q0 2.3-1.6 4-1.7 1.7-3.9 1.7-2.2 0-3.9-1.7-1.7-1.7-1.7-4v-34q0-2.3-1.6-4-1.7-1.7-3.9-1.7zm77.6 45.4h-33.3q-6.6 0-11.6-5.1-5-5.1-5-11.9 0-6.8 5-11.9 5-5.1 11.6-5.1h27.7v-5.7q0-2.3-1.6-4-1.7-1.7-3.9-1.7h-22.2q-2.2 0-3.9-1.7-1.6-1.7-1.6-4 0-2.2 1.6-3.9 1.7-1.7 3.9-1.7h22.2q6.6 0 11.6 5.1 5 5.1 5 11.9v34q0 2.3-1.6 4-1.7 1.7-3.9 1.7zm-5.6-11.3v-11.4h-27.7q-2.2 0-3.9 1.7-1.6 1.7-1.6 4 0 2.3 1.6 4 1.7 1.7 3.9 1.7zm61 11.3h-22.2q-2.2 0-3.9-1.7-1.6-1.7-1.6-4 0-2.2 1.6-3.9 1.7-1.7 3.9-1.7h5.6v-56.8h-5.6q-2.2 0-3.9-1.7-1.6-1.7-1.6-3.9 0-2.3 1.6-4 1.7-1.7 3.9-1.7h11.1q2.2 0 3.9 1.7 1.6 1.7 1.6 4v62.4h5.6q2.2 0 3.9 1.7 1.6 1.7 1.6 3.9 0 2.3-1.6 4-1.7 1.7-3.9 1.7z"/>
	</g>
</svg>